<svg width="148" height="87" viewBox="0 0 148 87" fill="none" xmlns="http://www.w3.org/2000/svg">
<g opacity="0.3" filter="url(#filter0_f_14_590)">
<rect x="30" y="30" width="88" height="27" rx="8" fill="#52B1E7"/>
</g>
<rect x="10" y="13" width="128" height="40" rx="8" fill="url(#paint0_radial_14_590)"/>
<path d="M36.0072 38H37.8672V34.568H41.5272V32.948H37.8672V30.68H42.1272V29.06H36.0072V38ZM43.6853 38H45.5453V29.06H43.6853V38ZM53.05 29.06V34.436L49.018 29.06H47.59V38H49.45V32.588L53.47 38H54.91V29.06H53.05ZM56.9556 38H59.8716C62.7636 38 64.6356 36.116 64.6356 33.524C64.6356 30.932 62.7756 29.06 59.8716 29.06H56.9556V38ZM58.8156 36.38V30.68H59.9196C61.6596 30.68 62.7756 31.784 62.7756 33.524C62.7756 35.264 61.6596 36.38 59.9196 36.38H58.8156ZM70.8641 38H72.7241V30.68H74.9681V29.06H68.5961V30.68H70.8641V38ZM76.4626 38H78.3226V29.06H76.4626V38ZM84.5793 38.144C86.5113 38.144 87.9393 37.076 88.4073 35.756L86.7633 34.964C86.4513 35.828 85.6593 36.464 84.5793 36.464C82.9953 36.464 81.9273 35.276 81.9273 33.524C81.9273 31.784 82.9953 30.596 84.5793 30.596C85.6593 30.596 86.4513 31.232 86.7633 32.096L88.4073 31.304C87.9393 29.984 86.5113 28.916 84.5793 28.916C81.9873 28.916 80.0673 30.86 80.0673 33.524C80.0673 36.176 82.0113 38.144 84.5793 38.144ZM94.1885 32.36L96.9365 29.06H94.8005L91.9445 32.48V29.06H90.0845V38H91.9445V35.072L92.9885 33.812L95.3285 38H97.4165L94.1885 32.36ZM98.7353 38H104.735L104.747 36.38H100.595V34.328H104.507V32.708H100.595V30.68H104.747V29.06H98.7353V38ZM108.27 38H110.13V30.68H112.374V29.06H106.002V30.68H108.27V38Z" fill="white"/>
<defs>
<filter id="filter0_f_14_590" x="0" y="0" width="148" height="87" filterUnits="userSpaceOnUse" color-interpolation-filters="sRGB">
<feFlood flood-opacity="0" result="BackgroundImageFix"/>
<feBlend mode="normal" in="SourceGraphic" in2="BackgroundImageFix" result="shape"/>
<feGaussianBlur stdDeviation="15" result="effect1_foregroundBlur_14_590"/>
</filter>
<radialGradient id="paint0_radial_14_590" cx="0" cy="0" r="1" gradientUnits="userSpaceOnUse" gradientTransform="translate(138 18) rotate(164.055) scale(97.0681 51.4873)">
<stop stop-color="#0085FF"/>
<stop offset="1" stop-color="#0085FF"/>
</radialGradient>
</defs>
</svg>
